<svg width="45" height="37" xmlns="http://www.w3.org/2000/svg" fill="none">

 <g>
  <title>Layer 1</title>
  <path id="svg_1" fill="#2F3A5F" d="m28,3.33192l-5.0251,-2.71194c-0.2964,-0.15997 -0.6534,-0.15997 -0.9498,0l-21.00003,11.33332c-0.32345,0.1746 -0.52507,0.5125 -0.52507,0.88c0,0.3676 0.20162,0.7055 0.52507,0.8801l21.00003,11.3333c0.2964,0.16 0.6535,0.16 0.9499,0l5.025,-2.7125l0,-2.2727l-5.5,2.9688l-18.89444,-10.197l18.89444,-10.19697l5.5,2.96826l0,-2.27267zm10.8502,25.16808c0.1794,0.268 0.4849,0.4444 0.8316,0.4444l3.8182,0c0.5523,0 1,-0.4477 1,-1l0,-9.4444l-2,0l0,8.4444l-1.8182,0l0,-8.4444l-1.6818,0l0,10l-0.1498,0zm-10.8502,-4.6617l-5.5,2.9697l-12.88853,-6.959c-0.30989,-0.1674 -0.68495,-0.1593 -0.9874,0.0211c-0.30245,0.1804 -0.48771,0.5066 -0.48771,0.8588l0,7.5555c0,0.3675 0.20155,0.7054 0.5249,0.88l13.36364,7.2155c0.2965,0.1601 0.6537,0.1601 0.9502,0l13.3636,-7.2155c0.2588,-0.1397 0.4396,-0.384 0.5015,-0.6644l-3.4806,0l-10.8596,5.8635l-12.3636,-6.6756l0,-5.2826l11.8885,6.4191c0.2965,0.1601 0.6537,0.1601 0.9502,0l5.0249,-2.7132l0,-2.2729z" clip-rule="evenodd" fill-rule="evenodd"/>
  <line transform="rotate(90 34.6572 13.9207)" stroke-width="3" stroke-linecap="undefined" stroke-linejoin="undefined" id="svg_4" y2="23.88414" x2="34.7486" y1="3.95732" x1="34.56578" stroke="#000" fill="none"/>
  <line stroke-width="3" stroke-linecap="undefined" stroke-linejoin="undefined" id="svg_5" y2="24.8901" x2="35.03798" y1="4.96328" x1="34.85516" stroke="#000" fill="none"/>
 </g>
</svg>