<svg width="31" height="41" viewBox="0 0 31 41" fill="none" xmlns="http://www.w3.org/2000/svg">
<path d="M30 30.4524V1.5C27.7119 1.5 24.5839 1.5 21.3 1.5M30 30.4524C23.04 30.4524 8.54 30.4524 6.22 30.4524C3.32 30.4524 1 32.2619 1 35.2778M30 30.4524H27.68V39.5C20.5267 39.5 8.076 39.5 6.22 39.5C3.9 39.5 1 38.2937 1 35.2778M1 35.2778C1 26.0291 1 7.16984 1 5.72222C1 3.9127 1 1.5 5.06 1.5C6.35254 1.5 9.46371 1.5 13.18 1.5M13.18 1.5V16.5794L17.24 13.5635L21.3 16.5794V1.5M13.18 1.5C15.7323 1.5 18.57 1.5 21.3 1.5" stroke="#333333" stroke-width="1.5"/>
</svg>
