<svg width="18" height="18" viewBox="0 0 18 18" fill="none" xmlns="http://www.w3.org/2000/svg">
<rect width="18" height="18" rx="9" fill="#E78536"/>
<path d="M9.44119 13C9.36119 13 9.28919 12.972 9.22519 12.916C9.16919 12.86 9.14119 12.788 9.14119 12.7V6.736L7.41319 8.08C7.34119 8.128 7.26519 8.148 7.18519 8.14C7.11319 8.124 7.04919 8.08 6.99319 8.008L6.39319 7.216C6.34519 7.144 6.32519 7.068 6.33319 6.988C6.34919 6.908 6.39319 6.844 6.46519 6.796L9.20119 4.684C9.24919 4.652 9.29319 4.632 9.33319 4.624C9.38119 4.608 9.43319 4.6 9.48919 4.6H10.7612C10.8492 4.6 10.9212 4.628 10.9772 4.684C11.0332 4.74 11.0612 4.812 11.0612 4.9V12.7C11.0612 12.788 11.0332 12.86 10.9772 12.916C10.9212 12.972 10.8492 13 10.7612 13H9.44119Z" fill="#333333"/>
</svg>
