<svg width="34" height="41" viewBox="0 0 34 41" fill="none" xmlns="http://www.w3.org/2000/svg">
<path d="M23.3617 33.4406C23.3617 36.8553 20.5936 39.6234 17.1789 39.6234C13.7642 39.6234 10.9961 36.8553 10.9961 33.4406C10.9961 30.026 13.7642 27.2578 17.1789 27.2578C20.5936 27.2578 23.3617 30.026 23.3617 33.4406Z" stroke="#2F3A5F"/>
<path d="M17.3332 0.123047C17.6547 0.123047 17.963 0.307813 18.1903 0.636699C18.4176 0.965585 18.5453 1.41165 18.5453 1.87677V3.75941H16.1211V1.87677C16.1211 1.41165 16.2488 0.965585 16.4761 0.636699C16.7034 0.307813 17.0117 0.123047 17.3332 0.123047V0.123047Z" fill="#2F3A5F"/>
<path d="M33.9804 30.5381C33.8593 32.1842 32.4523 33.4404 30.8015 33.4404H3.55071C1.90071 33.4404 0.4929 32.1842 0.371806 30.5381C0.338543 30.0887 0.40287 29.6374 0.560374 29.2152C0.717878 28.7929 0.964834 28.4098 1.28431 28.092C1.34134 28.0349 1.40071 27.9802 1.46165 27.9279C3.4929 26.181 5.02728 23.7537 5.25071 21.0818C5.37571 19.5849 5.33509 17.6099 5.33509 15.1052C5.33486 13.5595 5.64247 12.0293 6.23998 10.6037C6.8375 9.17815 7.71294 7.88587 8.81522 6.80227C9.91751 5.71868 11.2246 4.86546 12.6601 4.29241C14.0957 3.71937 15.631 3.43796 17.1765 3.46462C18.7219 3.43807 20.2571 3.71955 21.6926 4.29264C23.1281 4.86574 24.435 5.71897 25.5373 6.80256C26.6395 7.88614 27.5148 9.17839 28.1123 10.6039C28.7098 12.0294 29.0173 13.5596 29.0171 15.1052C29.0171 17.6099 28.9765 19.5849 29.1023 21.0818C29.3257 23.7537 30.857 26.181 32.8913 27.9279C32.9523 27.9802 33.0109 28.0349 33.0679 28.092C33.3874 28.4098 33.6343 28.7929 33.7918 29.2152C33.9493 29.6374 34.0137 30.0887 33.9804 30.5381Z" fill="#2F3A5F"/>
</svg>
