<svg width="49" height="48" viewBox="0 0 49 48" fill="none" xmlns="http://www.w3.org/2000/svg">
<g clip-path="url(#clip0_1296_78567)">
<g clip-path="url(#clip1_1296_78567)">
<path d="M24.4194 47.3633C18.0815 47.3633 12.132 44.8623 7.68929 40.3419C3.37084 35.9458 0.994141 30.1206 0.994141 23.938C0.994141 11.0293 11.5106 0.52832 24.4194 0.52832C37.3281 0.52832 47.8446 11.0293 47.8446 23.9536C47.8446 28.1167 46.7417 32.1866 44.6602 35.7594C43.8213 37.1885 42.8116 38.5555 41.6776 39.7982L41.6621 39.8138C37.2349 44.6138 30.9592 47.3633 24.4194 47.3633Z" fill="#EBEBEB"/>
<path d="M24.459 1.05905C37.1323 1.05905 47.408 11.3381 47.408 24.0156C47.408 28.2362 46.2715 32.1921 44.2786 35.5873C43.4534 37.0045 42.4726 38.3284 41.3672 39.5432L41.3516 39.5587C37.1635 44.122 31.1382 46.9721 24.459 46.9721C18.0444 46.9721 12.2371 44.34 8.0801 40.0883C4.01653 35.9455 1.50988 30.2764 1.50988 24.0156C1.50988 11.3225 11.7856 1.05905 24.459 1.05905ZM24.459 0C18.0444 0 12.0191 2.49189 7.48847 7.02401C2.95782 11.5561 0.451172 17.5834 0.451172 24C0.451172 30.3232 2.89555 36.3037 7.31721 40.8047C9.52805 43.0629 12.1125 44.8228 14.9929 46.0688C17.9821 47.3459 21.1583 48 24.4434 48C27.8531 48 31.1693 47.2992 34.252 45.913C37.2257 44.5737 39.8725 42.6736 42.0989 40.2596L42.1145 40.244L42.1301 40.2284C43.2977 38.9513 44.3253 37.5652 45.1816 36.1012C47.3146 32.4413 48.4512 28.2674 48.4512 24C48.4512 17.5834 45.9601 11.5561 41.4294 7.02401C36.8988 2.49189 30.8735 0 24.459 0Z" fill="#EBEBEB"/>
</g>
<path d="M44.2097 20.7539V35.4801C43.3864 36.8937 42.4078 38.2141 41.3049 39.4258H31.0059V20.7539H44.2097Z" fill="white"/>
<path d="M34.4089 29.5303L36.0089 30.1206C35.8069 30.6798 35.3099 31.0992 34.7196 31.2235C34.5487 31.2545 34.3623 31.2701 34.1914 31.239L34.4089 29.5303Z" fill="#EBEBEB"/>
<path d="M34.4074 29.5306L34.3918 31.2393C33.7394 31.2393 33.1491 30.851 32.8695 30.2762C32.4656 29.4374 32.8229 28.3966 33.6617 27.9927C33.7239 27.9616 33.786 27.9461 33.8481 27.915L34.4074 29.5306Z" fill="#E78536"/>
<path d="M34.4087 29.5307L33.834 27.9152C34.6573 27.62 35.5583 28.0084 35.9466 28.7851C36.1485 29.2045 36.1796 29.6861 36.0087 30.121L34.4087 29.5307Z" fill="#2F3A5F"/>
<path d="M34.4083 30.1828C34.7686 30.1828 35.0607 29.8907 35.0607 29.5304C35.0607 29.17 34.7686 28.8779 34.4083 28.8779C34.048 28.8779 33.7559 29.17 33.7559 29.5304C33.7559 29.8907 34.048 30.1828 34.4083 30.1828Z" fill="white"/>
<path d="M41.6607 31.3483H41.35C41.1947 31.3483 41.0859 31.2241 41.0859 31.0843V28.3969C41.0859 28.2415 41.2102 28.1328 41.35 28.1328H41.6607C41.816 28.1328 41.9248 28.2571 41.9248 28.3969V31.0843C41.9403 31.2241 41.816 31.3483 41.6607 31.3483Z" fill="#E78536"/>
<path d="M40.5433 31.348H40.1705C40.0462 31.348 39.9375 31.2393 39.9375 31.115V29.1422C39.9375 29.0179 40.0462 28.9092 40.1705 28.9092H40.5433C40.6676 28.9092 40.7763 29.0179 40.7763 29.1422V31.115C40.7763 31.2393 40.6676 31.348 40.5433 31.348Z" fill="#E78536"/>
<path d="M39.4259 31.348H38.9598C38.8511 31.348 38.7734 31.2548 38.7734 31.1616V29.9188C38.7734 29.8101 38.8666 29.7324 38.9598 29.7324H39.4259C39.5346 29.7324 39.6123 29.8256 39.6123 29.9188V31.1616C39.6123 31.2548 39.5346 31.348 39.4259 31.348Z" fill="#E78536"/>
<path d="M38.3221 31.3484H37.7629C37.6852 31.3484 37.623 31.2863 37.623 31.2086V30.6183C37.623 30.5407 37.6852 30.4785 37.7629 30.4785H38.3221C38.3998 30.4785 38.4619 30.5407 38.4619 30.6183V31.2086C38.4619 31.2863 38.3998 31.3484 38.3221 31.3484Z" fill="#E78536"/>
<path d="M38.0273 29.7947C38.0273 29.7947 39.472 29.251 41.1652 27.418" stroke="#2F3A5F" stroke-width="0.2" stroke-miterlimit="10" stroke-linecap="round"/>
<path d="M41.3064 27.6358L41.4152 27.1387L40.9336 27.2785L41.3064 27.6358Z" fill="#2F3A5F"/>
<path d="M34.1582 23.9541H41.0398" stroke="#999999" stroke-width="0.2" stroke-miterlimit="10" stroke-linecap="round"/>
<path d="M32.7617 33.1504H42.4394" stroke="#999999" stroke-width="0.2" stroke-miterlimit="10" stroke-linecap="round"/>
<path d="M32.7617 34.0977H42.4394" stroke="#999999" stroke-width="0.2" stroke-miterlimit="10" stroke-linecap="round"/>
<path d="M32.7617 35.0615H42.4394" stroke="#999999" stroke-width="0.2" stroke-miterlimit="10" stroke-linecap="round"/>
<path d="M32.7617 36.0088H42.4394" stroke="#999999" stroke-width="0.2" stroke-miterlimit="10" stroke-linecap="round"/>
<path d="M32.7617 24.9639H42.4394" stroke="#999999" stroke-width="0.2" stroke-miterlimit="10" stroke-linecap="round"/>
<path d="M32.7617 25.9268H42.4394" stroke="#999999" stroke-width="0.2" stroke-miterlimit="10" stroke-linecap="round"/>
<mask id="mask0_1296_78567" style="mask-type:alpha" maskUnits="userSpaceOnUse" x="3" y="3" width="42" height="42">
<circle cx="24" cy="24" r="21" fill="#C4C4C4"/>
</mask>
<g mask="url(#mask0_1296_78567)">
<path d="M43.6492 44.4045C38.7842 49.7037 31.785 53.0134 24.0262 53.0134C16.5749 53.0134 9.8289 49.9569 5 45.0195C6.46495 39.865 8.90652 35.1989 12.9758 33.2276C12.9758 33.2276 14.8206 32.4318 17.244 31.7626C17.4972 30.2615 18.6728 28.9593 20.3729 28.1635C21.241 27.7476 22.2538 27.4582 23.357 27.3497C23.556 27.3316 23.7368 27.3135 23.9358 27.2954C24.0985 27.2954 24.2613 27.2773 24.4241 27.2773C24.4964 27.2773 24.5688 27.2773 24.6411 27.2773C25.9433 27.2954 27.1731 27.5848 28.204 28.0369C30.0307 28.8327 31.3148 30.1711 31.6041 31.7445C31.6222 31.7445 31.6403 31.7626 31.6584 31.7626C32.418 31.9616 33.1053 32.1786 33.7202 32.3775C34.1723 32.5222 34.5702 32.6669 34.9138 32.7935C35.2032 32.902 35.4564 33.0105 35.6373 33.0648H35.6553C35.8543 33.1552 35.9809 33.1914 35.9809 33.1914C36.0713 33.2276 36.1437 33.2818 36.2341 33.318C36.5958 33.5169 36.9575 33.7159 37.3012 33.951C38.4767 34.7468 39.4714 35.7957 40.3396 37.0256C40.5928 37.3873 40.8279 37.749 41.063 38.1469C41.28 38.5086 41.479 38.8703 41.6779 39.2501C41.8588 39.6118 42.0396 39.9916 42.2205 40.3533C42.7811 41.6736 43.2514 43.0119 43.6492 44.4045Z" fill="#2F3A5F"/>
<path d="M18.8344 20.0607C18.8344 20.0607 16.6099 17.1851 17.7674 14.7254C17.7674 14.7254 18.6536 13.4594 19.6845 13.2786C19.6845 13.2786 20.7154 9.6795 25.1283 10.0231C29.5412 10.3668 31.0061 13.7488 31.0242 14.9063C31.0242 16.1723 30.554 19.1564 28.9082 20.0426H18.8344V20.0607Z" fill="#E78536"/>
<path d="M29.3241 33.0645C27.6422 38.7434 18.8887 37.6763 18.8887 31.8347C19.1238 30.5325 20.8781 28.8143 20.7515 24.944H20.8781L28.022 24.8174C27.9496 26.5717 28.1305 27.892 28.3837 28.9409C28.8178 30.7133 29.4327 31.7623 29.3241 33.0645Z" fill="#F9BAA2"/>
<path d="M28.4026 28.9224C24.1886 28.6511 21.9821 26.5531 20.8789 24.9254L28.0228 24.7988C27.9685 26.5531 28.1494 27.8734 28.4026 28.9224Z" fill="#E9AC94"/>
<path d="M20.2484 22.3211C20.9718 21.9051 21.0984 20.7476 20.5197 19.771C19.9409 18.7762 18.8919 18.306 18.1685 18.7401C17.4451 19.1561 17.3185 20.3135 17.8972 21.2902C18.476 22.2849 19.5249 22.7551 20.2484 22.3211Z" fill="#F9BAA2"/>
<path d="M28.0046 19.7712C27.4259 20.7659 27.5525 21.9053 28.2759 22.3394C28.9994 22.7553 30.0664 22.3032 30.609 21.2904C31.1877 20.2957 31.0611 19.1563 30.3377 18.7222C29.6324 18.2881 28.5834 18.7584 28.0046 19.7712Z" fill="#F9BAA2"/>
<path d="M24.2605 16.7511C22.5604 16.7511 21.0412 16.3351 19.9561 15.7021C19.938 15.8649 19.9199 16.0458 19.9199 16.2086V22.9907C19.9199 25.378 21.8732 27.3313 24.2605 27.3313C26.6478 27.3313 28.6011 25.378 28.6011 22.9907V16.2086C28.6011 16.0277 28.583 15.8649 28.5649 15.7021C27.4979 16.3351 25.9606 16.7511 24.2605 16.7511Z" fill="#F9BAA2"/>
<path d="M25.6712 16.6426C25.2191 16.6969 24.7488 16.7511 24.2605 16.7511C22.5604 16.7511 21.0412 16.3352 19.9561 15.7021C19.938 15.8649 19.9199 16.0458 19.9199 16.2086V16.8054C21.3849 16.9862 24.0254 17.2394 25.6712 16.6426Z" fill="#E9AC94"/>
<path d="M26.3782 20.5128C26.5229 20.5128 26.6314 20.2957 26.6314 20.0244C26.6314 19.7532 26.5229 19.5361 26.3782 19.5361C26.2335 19.5361 26.125 19.7532 26.125 20.0244C26.125 20.2957 26.2335 20.5128 26.3782 20.5128Z" fill="#2F3A5F"/>
<path d="M27.3193 18.4333C26.6139 18.1982 25.5469 18.2886 25.5469 18.2886L27.3193 18.4333Z" fill="#E78536"/>
<path d="M27.265 18.5778C26.9937 18.5054 26.7043 18.5054 26.433 18.5054C26.2884 18.5054 26.1437 18.5235 25.999 18.5235C25.8543 18.5416 25.7096 18.5597 25.583 18.5778C25.4203 18.6139 25.2756 18.5054 25.2394 18.3427C25.2032 18.1799 25.3117 18.0352 25.4745 17.999C25.4926 17.999 25.5107 17.999 25.5288 17.999C25.6915 17.999 25.8362 17.999 25.999 18.0171C26.1618 18.0352 26.3065 18.0352 26.4692 18.0714C26.7767 18.1075 27.0841 18.1799 27.3735 18.3065C27.4459 18.3427 27.5001 18.4331 27.4639 18.5054C27.4278 18.5597 27.3373 18.5959 27.265 18.5778Z" fill="#E78536"/>
<path d="M21.0195 18.6866C21.5802 18.2525 22.5206 18.1982 22.5206 18.1982L21.0195 18.6866Z" fill="#E78536"/>
<path d="M20.9142 18.5598C21.1312 18.3609 21.4025 18.2162 21.6738 18.1077C21.8004 18.0534 21.9451 18.0172 22.0898 17.9811C22.2344 17.9449 22.361 17.9087 22.5238 17.8906C22.7047 17.8725 22.8674 17.9811 22.8855 18.1619C22.9036 18.3428 22.7951 18.5055 22.6142 18.5236C22.5962 18.5236 22.5781 18.5236 22.56 18.5236C22.4515 18.5236 22.3249 18.5236 22.1983 18.5236C22.0717 18.5417 21.9451 18.5417 21.8185 18.5779C21.5834 18.6321 21.3302 18.7045 21.1312 18.8311C21.0589 18.8853 20.9504 18.8492 20.8961 18.7768C20.8418 18.7045 20.8418 18.6141 20.9142 18.5598Z" fill="#E78536"/>
<path d="M22.1814 20.5128C22.3261 20.5128 22.4527 20.2957 22.4527 20.0244C22.4527 19.7532 22.3261 19.5361 22.1814 19.5361C22.0368 19.5361 21.9102 19.7532 21.9102 20.0244C21.9102 20.2957 22.0368 20.5128 22.1814 20.5128Z" fill="#2F3A5F"/>
<path d="M24.208 21.9597C24.3165 21.8693 24.4431 21.815 24.4974 21.7246C24.5516 21.6523 24.5516 21.5438 24.5155 21.4352C24.4793 21.3267 24.407 21.2182 24.3346 21.1097C24.2623 21.0012 24.1718 20.8927 24.0995 20.7841C24.0814 20.7661 24.0814 20.7299 24.0995 20.7118C24.1176 20.6937 24.1357 20.6937 24.1718 20.7118C24.2984 20.7841 24.3889 20.8927 24.4974 21.0012C24.5878 21.1097 24.6782 21.2363 24.7325 21.381C24.7506 21.4533 24.7687 21.5438 24.7687 21.6342C24.7687 21.7246 24.7144 21.815 24.6602 21.8693C24.5336 21.9959 24.3708 22.0321 24.2442 22.0321C24.2261 22.0321 24.208 22.014 24.208 21.9959C24.1899 21.9778 24.208 21.9778 24.208 21.9597Z" fill="#2F3A5F"/>
<path d="M23.2113 23.551C23.374 23.6776 23.573 23.7861 23.7538 23.8585C23.9528 23.9308 24.1517 23.9851 24.3506 24.0032C24.5496 24.0212 24.7485 23.967 24.9294 23.8765C25.1102 23.8042 25.273 23.6595 25.3996 23.5148L25.4177 23.4967C25.472 23.4425 25.5624 23.4425 25.6166 23.4967C25.6709 23.551 25.6709 23.6414 25.6166 23.6957C25.4539 23.8585 25.2549 24.0212 25.0379 24.1117C24.8209 24.2021 24.5677 24.2564 24.3326 24.2202C24.0975 24.2021 23.8623 24.1298 23.6634 24.0393C23.4464 23.9489 23.2655 23.8223 23.0847 23.6776C23.0485 23.6414 23.0485 23.5872 23.0666 23.551C23.1208 23.5329 23.1751 23.5148 23.2113 23.551Z" fill="#2F3A5F"/>
</g>
</g>
<defs>
<clipPath id="clip0_1296_78567">
<rect width="48" height="48" fill="white" transform="translate(0.451172)"/>
</clipPath>
<clipPath id="clip1_1296_78567">
<rect width="48" height="48" fill="white" transform="translate(0.451172)"/>
</clipPath>
</defs>
</svg>
